<?xml version="1.0" encoding="UTF-8" standalone="no"?><svg xmlns="http://www.w3.org/2000/svg" xmlns:xlink="http://www.w3.org/1999/xlink"><symbol id="tasks" width="20" height="20" viewBox="0 0 20 20" xmlns="http://www.w3.org/2000/svg"><path d="M2.5 3.2H16.6667C16.7384 3.2 16.8 3.2616 16.8 3.33333V8.33333C16.8 8.40507 16.7384 8.46667 16.6667 8.46667H2.5C2.42827 8.46667 2.36667 8.40507 2.36667 8.33333V3.33333C2.36667 3.2616 2.42827 3.2 2.5 3.2ZM2.5 11.5333H16.6667C16.7384 11.5333 16.8 11.5949 16.8 11.6667V16.6667C16.8 16.7384 16.7384 16.8 16.6667 16.8H2.5C2.42827 16.8 2.36667 16.7384 2.36667 16.6667V11.6667C2.36667 11.5949 2.42827 11.5333 2.5 11.5333Z" stroke-width="1.4"></path></symbol><symbol id="contacts-active" width="20" height="20" viewBox="0 0 20 20" xmlns="http://www.w3.org/2000/svg"><path d="M6.81112 6.11106C6.81112 4.34905 8.238 2.92217 10 2.92217C11.762 2.92217 13.1889 4.34904 13.1889 6.11106C13.1889 7.87307 11.762 9.29995 10 9.29995C8.238 9.29995 6.81112 7.87307 6.81112 6.11106ZM2.92223 14.8611C2.92223 14.4716 3.11175 14.0787 3.54723 13.6768C3.98746 13.2705 4.63073 12.904 5.39799 12.5966C6.93364 11.9814 8.7896 11.6722 10 11.6722C11.2104 11.6722 13.0664 11.9814 14.602 12.5966C15.3693 12.904 16.0126 13.2705 16.4528 13.6768C16.8883 14.0787 17.0778 14.4716 17.0778 14.8611V17.0777H2.92223V14.8611Z" stroke-width="1.4"></path></symbol><symbol id="dashboard-active" width="20" height="20" viewBox="0 0 20 20" xmlns="http://www.w3.org/2000/svg"><path d="M3.5 10.1333C3.33431 10.1333 3.2 9.99902 3.2 9.83333V3.5C3.2 3.33431 3.33431 3.2 3.5 3.2H8.16667C8.33235 3.2 8.46667 3.33431 8.46667 3.5V9.83333C8.46667 9.99902 8.33235 10.1333 8.16667 10.1333H3.5ZM3.5 16.8C3.33431 16.8 3.2 16.6657 3.2 16.5V13.5C3.2 13.3343 3.33431 13.2 3.5 13.2H8.16667C8.33235 13.2 8.46667 13.3343 8.46667 13.5V16.5C8.46667 16.6657 8.33235 16.8 8.16667 16.8H3.5ZM11.8333 16.8C11.6676 16.8 11.5333 16.6657 11.5333 16.5V10.1667C11.5333 10.001 11.6676 9.86667 11.8333 9.86667H16.5C16.6657 9.86667 16.8 10.001 16.8 10.1667V16.5C16.8 16.6657 16.6657 16.8 16.5 16.8H11.8333ZM11.5333 3.5C11.5333 3.33431 11.6676 3.2 11.8333 3.2H16.5C16.6657 3.2 16.8 3.33431 16.8 3.5V6.5C16.8 6.66569 16.6657 6.8 16.5 6.8H11.8333C11.6676 6.8 11.5333 6.66569 11.5333 6.5V3.5Z" stroke-width="1.4"></path></symbol></svg>