<?xml version="1.0" encoding="UTF-8" standalone="no"?><svg xmlns="http://www.w3.org/2000/svg" xmlns:xlink="http://www.w3.org/1999/xlink"><symbol id="contacts-active" width="20" height="20" viewBox="0 0 20 20" xmlns="http://www.w3.org/2000/svg"><path d="M6.81112 6.11106C6.81112 4.34905 8.238 2.92217 10 2.92217C11.762 2.92217 13.1889 4.34904 13.1889 6.11106C13.1889 7.87307 11.762 9.29995 10 9.29995C8.238 9.29995 6.81112 7.87307 6.81112 6.11106ZM2.92223 14.8611C2.92223 14.4716 3.11175 14.0787 3.54723 13.6768C3.98746 13.2705 4.63073 12.904 5.39799 12.5966C6.93364 11.9814 8.7896 11.6722 10 11.6722C11.2104 11.6722 13.0664 11.9814 14.602 12.5966C15.3693 12.904 16.0126 13.2705 16.4528 13.6768C16.8883 14.0787 17.0778 14.4716 17.0778 14.8611V17.0777H2.92223V14.8611Z" stroke-width="1.4"></path></symbol><symbol id="edit" width="24" height="24" viewBox="0 0 24 24" xmlns="http://www.w3.org/2000/svg"><rect x="3" y="3" width="18" height="18"></rect><path d="M13 2.5H5.5C3.84315 2.5 2.5 3.84315 2.5 5.5V18.5C2.5 20.1569 3.84315 21.5 5.5 21.5H18.5C20.1569 21.5 21.5 20.1569 21.5 18.5V11"></path><path d="M18 2.99981L10 11L9 15L13 14L21 5.99977C21 5.99977 22.5 4.49995 21 2.99996C19.5 1.49995 18 2.99981 18 2.99981Z"></path><path d="M10 11L9.29288 10.2929C9.16473 10.4211 9.07381 10.5816 9.02986 10.7575L10 11ZM18 2.99981L17.2929 2.29267L17.2929 2.29271L18 2.99981ZM21 5.99977L20.2929 5.29263L20.2929 5.29268L21 5.99977ZM13 14L13.2425 14.9701C13.4184 14.9262 13.579 14.8353 13.7071 14.7071L13 14ZM9 15L8.02986 14.7575C7.94466 15.0982 8.04451 15.4587 8.29289 15.7071C8.54127 15.9555 8.90176 16.0553 9.24254 15.9701L9 15ZM21 2.99996L20.2929 3.70706L20.2929 3.70706L21 2.99996ZM10.7071 11.7071L18.7071 3.70691L17.2929 2.29271L9.29288 10.2929L10.7071 11.7071ZM20.2929 5.29268L12.2929 13.2929L13.7071 14.7071L21.7071 6.70687L20.2929 5.29268ZM12.7575 13.0299L8.75746 14.0299L9.24254 15.9701L13.2425 14.9701L12.7575 13.0299ZM9.97014 15.2425L10.9701 11.2425L9.02986 10.7575L8.02986 14.7575L9.97014 15.2425ZM20.2929 3.70706C20.5442 3.95834 20.6248 4.16056 20.6522 4.29761C20.6811 4.44204 20.6656 4.59072 20.6138 4.74611C20.5606 4.90566 20.4758 5.0507 20.3972 5.16071C20.3593 5.21377 20.3265 5.25363 20.3059 5.27743C20.2957 5.2892 20.2888 5.29663 20.2862 5.29937C20.285 5.30072 20.2848 5.30087 20.2859 5.29977C20.2864 5.29922 20.2873 5.29836 20.2884 5.29717C20.289 5.29657 20.2897 5.2959 20.2904 5.29514C20.2908 5.29476 20.2912 5.29436 20.2916 5.29395C20.2918 5.29374 20.2922 5.29341 20.2923 5.2933C20.2926 5.29297 20.2929 5.29263 21 5.99977C21.7071 6.70692 21.7074 6.70657 21.7078 6.70621C21.7079 6.70608 21.7083 6.70572 21.7085 6.70546C21.709 6.70495 21.7096 6.70442 21.7101 6.70385C21.7112 6.70273 21.7124 6.70151 21.7137 6.70019C21.7163 6.69755 21.7193 6.69451 21.7226 6.69107C21.7293 6.68421 21.7374 6.67575 21.7467 6.66576C21.7654 6.64579 21.7893 6.61954 21.8172 6.58737C21.8727 6.52328 21.9454 6.43426 22.0246 6.32326C22.1804 6.10519 22.3769 5.78152 22.5112 5.37861C22.6469 4.97155 22.7251 4.46402 22.6134 3.90536C22.5002 3.33933 22.2058 2.79158 21.7071 2.29285L20.2929 3.70706ZM18 2.99981C18.7071 3.70695 18.7067 3.70729 18.7064 3.70763C18.7063 3.70773 18.706 3.70806 18.7058 3.70827C18.7053 3.70869 18.7049 3.70908 18.7046 3.70946C18.7038 3.71021 18.7031 3.71088 18.7025 3.71146C18.7013 3.71263 18.7005 3.71347 18.6999 3.71401C18.6988 3.71507 18.699 3.71491 18.7003 3.71364C18.7031 3.71108 18.7105 3.70422 18.7223 3.69402C18.7461 3.67339 18.7859 3.64056 18.839 3.60266C18.949 3.52408 19.0941 3.43927 19.2537 3.38609C19.4091 3.33429 19.5578 3.31879 19.7023 3.34769C19.8394 3.37512 20.0416 3.45579 20.2929 3.70706L21.7071 2.29285C21.2084 1.79413 20.6606 1.49978 20.0946 1.38655C19.5359 1.27479 19.0284 1.35302 18.6213 1.48868C18.2184 1.62297 17.8947 1.81937 17.6766 1.97513C17.5656 2.05441 17.4766 2.12704 17.4125 2.18257C17.3803 2.21045 17.3541 2.23435 17.3341 2.25303C17.3241 2.26238 17.3156 2.27046 17.3088 2.2771C17.3053 2.28043 17.3023 2.2834 17.2997 2.286C17.2983 2.2873 17.2971 2.28851 17.296 2.28962C17.2954 2.29018 17.2949 2.29071 17.2944 2.29122C17.2941 2.29147 17.2938 2.29184 17.2936 2.29196C17.2933 2.29232 17.2929 2.29267 18 2.99981Z"></path><path d="M16 5L19 8" stroke-width="2"></path></symbol><symbol id="search" width="20" height="20" viewBox="0 0 20 20" xmlns="http://www.w3.org/2000/svg"><path d="M12.9167 11.6667H12.2583L12.025 11.4417C12.8417 10.4917 13.3333 9.25833 13.3333 7.91667C13.3333 4.925 10.9083 2.5 7.91667 2.5C4.925 2.5 2.5 4.925 2.5 7.91667C2.5 10.9083 4.925 13.3333 7.91667 13.3333C9.25833 13.3333 10.4917 12.8417 11.4417 12.025L11.6667 12.2583V12.9167L15.8333 17.075L17.075 15.8333L12.9167 11.6667ZM7.91667 11.6667C5.84167 11.6667 4.16667 9.99167 4.16667 7.91667C4.16667 5.84167 5.84167 4.16667 7.91667 4.16667C9.99167 4.16667 11.6667 5.84167 11.6667 7.91667C11.6667 9.99167 9.99167 11.6667 7.91667 11.6667Z"></path></symbol><symbol id="dashboard-active" width="20" height="20" viewBox="0 0 20 20" xmlns="http://www.w3.org/2000/svg"><path d="M3.5 10.1333C3.33431 10.1333 3.2 9.99902 3.2 9.83333V3.5C3.2 3.33431 3.33431 3.2 3.5 3.2H8.16667C8.33235 3.2 8.46667 3.33431 8.46667 3.5V9.83333C8.46667 9.99902 8.33235 10.1333 8.16667 10.1333H3.5ZM3.5 16.8C3.33431 16.8 3.2 16.6657 3.2 16.5V13.5C3.2 13.3343 3.33431 13.2 3.5 13.2H8.16667C8.33235 13.2 8.46667 13.3343 8.46667 13.5V16.5C8.46667 16.6657 8.33235 16.8 8.16667 16.8H3.5ZM11.8333 16.8C11.6676 16.8 11.5333 16.6657 11.5333 16.5V10.1667C11.5333 10.001 11.6676 9.86667 11.8333 9.86667H16.5C16.6657 9.86667 16.8 10.001 16.8 10.1667V16.5C16.8 16.6657 16.6657 16.8 16.5 16.8H11.8333ZM11.5333 3.5C11.5333 3.33431 11.6676 3.2 11.8333 3.2H16.5C16.6657 3.2 16.8 3.33431 16.8 3.5V6.5C16.8 6.66569 16.6657 6.8 16.5 6.8H11.8333C11.6676 6.8 11.5333 6.66569 11.5333 6.5V3.5Z" stroke-width="1.4"></path></symbol><symbol id="plus-round" width="24" height="24" viewBox="0 0 24 24" xmlns="http://www.w3.org/2000/svg"><circle cx="12" cy="12" r="9.5"></circle><rect x="7" y="11" width="10" height="2" rx="1"></rect><rect x="11" y="17" width="10" height="2" rx="1" transform="rotate(-90 11 17)"></rect></symbol><symbol id="bell" width="16" height="20" viewBox="0 0 16 20" xmlns="http://www.w3.org/2000/svg"><path d="M15.5 16.2071V16.5H0.5V16.2071L2.35355 14.3536L2.5 14.2071V14V9C2.5 6.09437 4.02219 3.78092 6.61528 3.16653L7 3.07538V2.68V2C7 1.44614 7.44614 1 8 1C8.55386 1 9 1.44614 9 2V2.68V3.07506L9.38434 3.16644C11.9681 3.78076 13.5 6.10482 13.5 9V14V14.2071L13.6464 14.3536L15.5 16.2071ZM9.41352 18.5C9.20605 19.0806 8.64884 19.5 8 19.5C7.34433 19.5 6.79074 19.0813 6.58536 18.5H9.41352Z"></path></symbol><symbol id="arrow-up" width="10" height="7" viewBox="0 0 10 7" xmlns="http://www.w3.org/2000/svg"><path d="M9 6L5 2L1 6" stroke-width="2" stroke-linecap="round"></path></symbol><symbol id="tasks" width="20" height="20" viewBox="0 0 20 20" xmlns="http://www.w3.org/2000/svg"><path d="M2.5 3.2H16.6667C16.7384 3.2 16.8 3.2616 16.8 3.33333V8.33333C16.8 8.40507 16.7384 8.46667 16.6667 8.46667H2.5C2.42827 8.46667 2.36667 8.40507 2.36667 8.33333V3.33333C2.36667 3.2616 2.42827 3.2 2.5 3.2ZM2.5 11.5333H16.6667C16.7384 11.5333 16.8 11.5949 16.8 11.6667V16.6667C16.8 16.7384 16.7384 16.8 16.6667 16.8H2.5C2.42827 16.8 2.36667 16.7384 2.36667 16.6667V11.6667C2.36667 11.5949 2.42827 11.5333 2.5 11.5333Z" stroke-width="1.4"></path></symbol><symbol id="toggle" width="14" height="14" viewBox="0 0 14 14" xmlns="http://www.w3.org/2000/svg"><path fill-rule="evenodd" clip-rule="evenodd" d="M2 0C0.895431 0 0 0.89543 0 2V12C0 13.1046 0.89543 14 2 14H12C13.1046 14 14 13.1046 14 12V2C14 0.895431 13.1046 0 12 0H2ZM5 2C4.44772 2 4 2.44772 4 3V11C4 11.5523 4.44772 12 5 12C5.55228 12 6 11.5523 6 11V3C6 2.44772 5.55228 2 5 2Z"></path></symbol></svg>